<?xml version="1.0" encoding="UTF-8"?>
<svg id="Layer_2" data-name="Layer 2" xmlns="http://www.w3.org/2000/svg" viewBox="0 0 67 79.16">
  <defs>
    <style>
      .cls-1 {
        fill: #fff;
        fill-rule: evenodd;
        stroke-width: 0px;
      }
    </style>
  </defs>
  <g id="Layer_1-2" data-name="Layer 1">
    <path class="cls-1" d="m15.19,19.3h-5.13c-3.55,0-6.49,2.74-6.74,6.28L.02,71.92c-.13,1.87.52,3.71,1.79,5.09,1.28,1.38,3.07,2.15,4.95,2.15h53.49c1.87,0,3.67-.78,4.95-2.15,1.28-1.37,1.93-3.21,1.8-5.09l-3.31-46.34c-.25-3.54-3.2-6.28-6.74-6.28h-5.1v-.97C51.84,8.21,43.63,0,33.5,0S14.72,7.77,15.16,18.34c.01.32.02.64.04.97m36.65,5.79v14.48c0,1.6-1.3,2.89-2.9,2.89s-2.9-1.3-2.9-2.89v-14.48h-25.1v14.48c0,1.6-1.3,2.89-2.9,2.89s-2.9-1.3-2.9-2.89c0,0,.25-6.77.17-14.48h-5.26c-.5,0-.92.39-.96.9l-3.31,46.33c-.02.27.08.53.26.73.18.2.44.31.7.31h53.49c.27,0,.52-.11.71-.31.18-.2.27-.46.25-.73l-3.31-46.33c-.04-.5-.46-.9-.96-.9h-5.1Zm-5.79-5.79v-.97c0-6.93-5.62-12.55-12.55-12.55s-12.55,5.61-12.55,12.55v.97h25.1Z"/>
  </g>
</svg>