<?xml version="1.0" encoding="UTF-8"?>
<svg id="Layer_2" data-name="Layer 2" xmlns="http://www.w3.org/2000/svg" viewBox="0 0 34.17 40.38">
  <defs>
    <style>
      .cls-1 {
        fill-rule: evenodd;
        stroke-width: 0px;
      }
    </style>
  </defs>
  <g id="Layer_1-2" data-name="Layer 1">
    <path class="cls-1" d="m7.75,9.85h-2.62c-1.81,0-3.31,1.4-3.44,3.2L0,36.68c-.07.95.26,1.89.91,2.59.65.7,1.57,1.1,2.52,1.1h27.28c.96,0,1.87-.4,2.52-1.1.65-.7.98-1.64.92-2.59l-1.69-23.63c-.13-1.8-1.63-3.2-3.44-3.2h-2.6v-.49c0-5.17-4.19-9.35-9.35-9.35S7.51,3.96,7.73,9.35c0,.16.01.33.02.49m18.69,2.95v7.39c0,.81-.66,1.48-1.48,1.48s-1.48-.66-1.48-1.48v-7.39h-12.8v7.39c0,.81-.66,1.48-1.48,1.48s-1.48-.66-1.48-1.48c0,0,.13-3.45.09-7.39h-2.68c-.26,0-.47.2-.49.46l-1.69,23.63c-.01.14.04.27.13.37.09.1.22.16.36.16h27.28c.14,0,.27-.06.36-.16.09-.1.14-.24.13-.37l-1.69-23.63c-.02-.26-.23-.46-.49-.46h-2.6Zm-2.95-2.95v-.49c0-3.54-2.87-6.4-6.4-6.4s-6.4,2.87-6.4,6.4v.49h12.8Z"/>
  </g>
</svg>