<?xml version="1.0" encoding="UTF-8"?>
<svg id="Layer_2" data-name="Layer 2" xmlns="http://www.w3.org/2000/svg" viewBox="0 0 240.55 240.63">
  <defs>
    <style>
      .cls-1 {
        stroke-width: 0px;
      }
    </style>
  </defs>
  <g id="Layer_1-2" data-name="Layer 1">
    <g>
      <path class="cls-1" d="m113.27,0h14.1c4.03.51,8.07.87,12.07,1.53,25.13,4.21,47.03,15.01,65.05,33.02,27.03,27.02,38.92,59.85,35.46,97.87-2.31,25.52-12.3,48.07-29.37,67.23-22.66,25.45-51.19,39.17-85.22,40.83-23.72,1.16-46.04-4.38-66.36-16.77C27.79,204.66,8.61,177.08,1.88,141.02c-.84-4.51-1.26-9.1-1.88-13.65v-14.1c.19-1.69.39-3.38.58-5.07,2.87-25.9,12.76-48.73,30.21-68.1C49.33,19.54,72.28,6.71,99.6,1.87c4.53-.8,9.11-1.26,13.67-1.87m7.11,18.68c-56.01-.07-101.54,45.38-101.69,101.52-.15,55.94,45.31,101.51,101.47,101.75,55.98.23,101.8-45.52,101.8-101.64S176.5,18.76,120.38,18.68"/>
      <path class="cls-1" d="m129.68,90.16c0,8.07.03,16.14-.03,24.2-.01,1.48.42,2.4,1.63,3.3,10.43,7.76,20.8,15.59,31.21,23.37,3.46,2.59,5.14,5.92,4.11,10.2-1.6,6.59-9.09,9.2-14.74,5.1-6.45-4.7-12.79-9.56-19.18-14.35-5.7-4.28-11.36-8.6-17.11-12.81-3.09-2.26-4.6-5.2-4.6-9,.01-18.1-.01-36.19.02-54.28.01-5.19,3.07-9.07,7.62-9.89,4.33-.79,8.7,1.5,10.26,5.62.56,1.5.77,3.2.79,4.81.08,7.91.03,15.82.03,23.73"/>
    </g>
  </g>
</svg>