<?xml version="1.0" encoding="UTF-8"?>
<svg id="Layer_2" data-name="Layer 2" xmlns="http://www.w3.org/2000/svg" viewBox="0 0 369.45 318.08">
  <defs>
    <style>
      .cls-1 {
        stroke-width: 0px;
      }
    </style>
  </defs>
  <g id="Layer_1-2" data-name="Layer 1">
    <path class="cls-1" d="m222.79,266.5c4.31,8.62,8.32,16.75,12.55,24.78.4.75,2.31.96,3.51.96,10.21.08,20.42.02,30.63.06,8.19.03,14.07,5.4,14.1,12.8.05,7.43-5.82,12.95-13.98,12.95-56.51.03-113.06.02-169.59,0-8.21,0-14.07-5.35-14.15-12.76-.1-7.58,5.82-12.98,14.3-13,10.08-.03,20.15-.09,30.21.05,2.48.03,3.85-.63,4.94-2.93,3.54-7.48,7.32-14.85,11.33-22.91h-4.81c-31.29,0-62.57.05-93.86,0-24.09-.05-43.29-16.22-47.38-39.94-.53-3.01-.56-6.14-.56-9.22C0,161.35-.01,105.36.02,49.35.03,20.28,20.34.01,49.46.01,139.7,0,229.94,0,320.17.01c28.88.02,49.24,20.29,49.25,49.12.05,56,.03,111.98,0,167.99-.02,29.2-20.2,49.38-49.33,49.38-30.76.02-61.51,0-92.26,0h-5.05Zm-38.05-25.78h134.94c15.42,0,23.98-8.51,23.98-23.86.02-55.73.02-111.46,0-167.17,0-15.32-8.64-23.89-24.01-23.89-89.96-.02-179.93-.02-269.89,0-15.34,0-23.96,8.59-23.96,23.92v167.17c0,15.35,8.57,23.83,24.01,23.83h134.94"/>
  </g>
</svg>