<?xml version="1.0" encoding="UTF-8"?>
<svg id="Layer_2" data-name="Layer 2" xmlns="http://www.w3.org/2000/svg" viewBox="0 0 160.07 156.04">
  <defs>
    <style>
      .cls-1 {
        fill: #c7002a;
        stroke-width: 0px;
      }
    </style>
  </defs>
  <g id="Layer_1-2" data-name="Layer 1">
    <path class="cls-1" d="m16.64,71.26C7.42,71.29-.03,78.78,0,87.99c0,3.82,1.33,7.52,3.74,10.48l42.38,51.92c3.07,3.81,7.78,5.9,12.66,5.62,5.14-.27,9.79-3.03,12.75-7.55L159.57,6.68s.03-.05.05-.07c.83-1.27.56-3.78-1.15-5.36-1.9-1.76-4.86-1.64-6.61.26-.07.07-.13.14-.19.22-.03.04-.07.08-.1.12L62.78,102.15c-1.4,1.59-3.84,1.74-5.43.33-.01,0-.03-.03-.04-.04l-29.47-26.81c-3.06-2.81-7.06-4.36-11.21-4.37"/>
  </g>
</svg>