<?xml version="1.0" encoding="UTF-8"?>
<svg id="Layer_2" data-name="Layer 2" xmlns="http://www.w3.org/2000/svg" viewBox="0 0 174.52 167.26">
  <defs>
    <style>
      .cls-1 {
        fill: #ffa307;
        stroke-width: 0px;
      }
    </style>
  </defs>
  <g id="Layer_1-2" data-name="Layer 1">
    <path class="cls-1" d="m31.14,160.17c1.27-7.5,2.62-15.63,4.04-23.74,1.4-8.12,2.78-16.24,4.36-24.32.79-4.04-1.02-6.65-3.77-9.26-10.71-10.2-21.3-20.55-31.93-30.84-.61-.59-1.47-1.1-1.77-1.82-.87-2.11-2.5-4.61-1.96-6.39.53-1.77,3.18-3.72,5.17-4.09,9.76-1.8,19.62-3.13,29.45-4.59,6.32-.94,12.64-1.86,18.97-2.71,3.22-.43,5.26-1.87,6.73-4.96,6.55-13.73,13.37-27.33,20.09-40.98.43-.9.69-2.01,1.37-2.62C83.59,2.34,85.53-.04,87.32,0c1.87.04,4.41,2.13,5.39,3.99,4.8,9.03,9.18,18.29,13.71,27.47,2.64,5.36,5.4,10.66,7.87,16.1,1.31,2.89,3.21,4.41,6.35,4.85,14.06,1.97,28.1,4.06,42.14,6.12,2.11.31,4.36.32,6.27,1.13,2.06.88,4.91,2.25,5.35,3.94.51,1.95-.62,5.08-2.14,6.67-6.15,6.5-12.71,12.63-19.14,18.88-5.31,5.16-10.77,10.17-15.85,15.53-1.3,1.39-2.21,4.04-1.92,5.89,2.5,16.42,5.42,32.77,7.87,49.19.32,2.11-.75,5.34-2.33,6.55-1.36,1.04-4.7.64-6.57-.31-14.32-7.29-28.54-14.79-42.68-22.41-3.14-1.69-5.7-1.6-8.76.06-13.64,7.35-27.38,14.53-41.08,21.77-.88.47-1.77.97-2.69,1.3-4.86,1.74-8.13-.71-7.97-6.53"/>
  </g>
</svg>